<?xml version="1.0" encoding="UTF-8" standalone="no"?>
<!-- Uploaded to: SVG Repo, www.svgrepo.com, Generator: SVG Repo Mixer Tools -->

<svg
   width="800px"
   height="800px"
   viewBox="0 0 24 24"
   fill="none"
   version="1.1"
   id="svg1"
   sodipodi:docname="moon-svgrepo-com.svg"
   inkscape:version="1.3.2 (091e20e, 2023-11-25, custom)"
   xmlns:inkscape="http://www.inkscape.org/namespaces/inkscape"
   xmlns:sodipodi="http://sodipodi.sourceforge.net/DTD/sodipodi-0.dtd"
   xmlns="http://www.w3.org/2000/svg"
   xmlns:svg="http://www.w3.org/2000/svg">
  <defs
     id="defs1" />
  <sodipodi:namedview
     id="namedview1"
     pagecolor="#ffffff"
     bordercolor="#000000"
     borderopacity="0.25"
     inkscape:showpageshadow="2"
     inkscape:pageopacity="0.0"
     inkscape:pagecheckerboard="0"
     inkscape:deskcolor="#d1d1d1"
     inkscape:zoom="1.02625"
     inkscape:cx="400"
     inkscape:cy="400"
     inkscape:window-width="1920"
     inkscape:window-height="1017"
     inkscape:window-x="-8"
     inkscape:window-y="-8"
     inkscape:window-maximized="1"
     inkscape:current-layer="svg1" />
  <path
     fill-rule="evenodd"
     clip-rule="evenodd"
     d="M 7.5199209,0.13416732 C 8.7413108,-0.4136099 9.799457,0.82378952 9.417348,1.8981711 8.1208469,5.5436983 8.9174312,9.6842095 11.608571,12.376535 c 2.7048,2.706094 6.869224,3.501435 10.523534,2.180576 1.063311,-0.384324 2.266129,0.664295 1.740446,1.857609 -0.01557,0.03527 -0.03125,0.07042 -0.04706,0.105687 -0.935631,2.076463 -2.432304,4.029248 -4.368615,5.338512 C 17.393005,23.254421 14.959132,24 12.468176,24 h -0.0012 C 9.5703461,23.996856 6.7649591,22.98568 4.5317401,21.139907 2.298509,19.294135 0.77651732,16.728509 0.22679593,13.882913 -0.32292548,11.037317 0.13388442,8.0890814 1.5188801,5.5435655 2.831854,3.1304131 5.0396942,1.255134 7.4840066,0.15032779 Z"
     fill="#323232"
     id="path1"
     style="fill:#ffffff;stroke-width:1.2073" />
</svg>
